<svg width="20" height="20" viewBox="0 0 20 20" fill="none" xmlns="http://www.w3.org/2000/svg">
<g id="emojione:sun-behind-rain-cloud">
<g id="Group">
<path id="Vector" d="M6.25 8.875C7.69975 8.875 8.875 7.69975 8.875 6.25C8.875 4.80025 7.69975 3.625 6.25 3.625C4.80025 3.625 3.625 4.80025 3.625 6.25C3.625 7.69975 4.80025 8.875 6.25 8.875Z" fill="#FFCE31"/>
<path id="Vector_2" d="M7.3125 3.1875L6.25 0.625L5.1875 3.1875C5.53125 3.125 5.875 3.09375 6.25 3.09375C6.625 3.09375 6.96875 3.125 7.3125 3.1875ZM5.1875 9.3125L6.25 11.875L7.3125 9.3125C6.96875 9.375 6.625 9.40625 6.25 9.40625C5.875 9.40625 5.53125 9.375 5.1875 9.3125ZM9.3125 7.3125L11.875 6.25L9.3125 5.1875C9.375 5.53125 9.40625 5.875 9.40625 6.25C9.40625 6.625 9.375 6.96875 9.3125 7.3125ZM3.1875 5.1875L0.625 6.25L3.1875 7.3125C3.125 6.96875 3.09375 6.625 3.09375 6.25C3.09375 5.875 3.125 5.53125 3.1875 5.1875ZM9.15625 4.84375L10.2188 2.28125L7.65625 3.34375C7.9375 3.53125 8.21875 3.75 8.46875 4.03125C8.75 4.28125 8.96875 4.5625 9.15625 4.84375ZM3.34375 7.65625L2.28125 10.2188L4.84375 9.15625C4.5625 8.96875 4.28125 8.75 4.03125 8.46875C3.75 8.21875 3.53125 7.96875 3.34375 7.65625ZM7.65625 9.15625L10.2188 10.2188L9.15625 7.65625C8.96875 7.9375 8.75 8.21875 8.46875 8.46875C8.21875 8.75 7.96875 8.96875 7.65625 9.15625ZM4.84375 3.34375L2.28125 2.28125L3.34375 4.84375C3.53125 4.5625 3.75 4.28125 4.03125 4.03125C4.28125 3.75 4.5625 3.53125 4.84375 3.34375Z" fill="#FFCE31"/>
</g>
<path id="Vector_3" d="M7.5 10.4688C7.25 10.4688 6.96875 10.4375 6.71875 10.3437C5.71875 10 5.03125 9.0625 5.03125 8C5.03125 7.28125 5.34375 6.625 5.875 6.15625C6 6.03125 6.15625 5.9375 6.3125 5.84375L6.46875 5.28125C6.875 3.875 8.1875 2.875 9.6875 2.875C9.84375 2.875 10 2.875 10.1562 2.90625C10.2812 2.9375 10.4375 2.96875 10.5625 3L10.625 2.875C11.2188 1.8125 12.375 1.125 13.5938 1.125C15.4688 1.125 17 2.625 17 4.5V4.84375C17.1563 4.90625 17.2812 4.96875 17.4062 5.03125C18.3125 5.5625 18.875 6.53125 18.875 7.5625C18.875 8.9375 17.9375 10.0938 16.5938 10.4062C16.375 10.4688 16.1562 10.4688 15.9375 10.4688H7.5Z" fill="white"/>
<path id="Vector_4" d="M13.625 1.59375C15.2188 1.59375 16.5312 2.875 16.5312 4.46875V4.6875C15.875 4.75 15.25 5 14.7812 5.40625C15.125 5.1875 15.5625 5.09375 16 5.09375C16.1563 5.09375 16.3125 5.125 16.4688 5.125C16.7188 5.1875 16.9687 5.28125 17.2187 5.40625C17.9375 5.8125 18.4375 6.59375 18.4375 7.5C18.4375 8.65625 17.625 9.625 16.5625 9.84375C16.375 9.875 16.2188 9.90625 16.0312 9.90625H7.5C7.28125 9.90625 7.0625 9.875 6.875 9.8125C6.09375 9.5625 5.53125 8.8125 5.53125 7.9375C5.53125 7.34375 5.78125 6.8125 6.21875 6.46875C6.40625 6.3125 6.625 6.1875 6.875 6.09375C7.09375 6.03125 7.3125 5.96875 7.53125 5.96875C8.15625 5.96875 8.75 6.28125 9.09375 6.75H9.125C8.71875 5.96875 7.90625 5.4375 7 5.34375C7.34375 4.15625 8.4375 3.28125 9.75 3.28125C9.875 3.28125 10.0312 3.28125 10.1562 3.3125C10.4062 3.34375 10.6875 3.4375 10.9063 3.53125C11.7813 3.90625 12.4375 4.75 12.5625 5.71875V5.6875C12.5625 4.5625 12 3.59375 11.125 3.03125C11.5625 2.21875 12.5312 1.59375 13.625 1.59375ZM13.625 0.625C12.2812 0.625 11.0625 1.3125 10.3437 2.40625H10.25C10.0312 2.375 9.875 2.375 9.6875 2.375C7.96875 2.375 6.46875 3.5 6 5.15625L5.875 5.53125C5.75 5.59375 5.625 5.6875 5.53125 5.78125C4.875 6.34375 4.5 7.15625 4.5 8C4.5 9.28125 5.3125 10.4062 6.53125 10.8125C6.84375 10.9062 7.15625 10.9688 7.46875 10.9688H15.9375C16.1875 10.9688 16.4375 10.9375 16.7188 10.875C18.2812 10.5312 19.375 9.15625 19.375 7.5625C19.375 6.34375 18.7188 5.21875 17.6562 4.625C17.5937 4.59375 17.5625 4.5625 17.5 4.53125V4.5C17.5 2.375 15.75 0.625 13.625 0.625Z" fill="#B6C1D1"/>
</g>
</svg>
